<svg width="89" height="51" viewBox="0 0 89 51" fill="none" xmlns="http://www.w3.org/2000/svg">
<g filter="url(#filter0_d_270_17)">
<path d="M88.3311 13.4539C87.7196 19.0937 86.0548 24.9544 83.3369 31.0358L70.1887 32.4118C69.781 34.4163 69.4072 36.9644 69.0675 40.0561L67.5386 40.0051L67.7934 37.7118C67.8954 36.2849 68.0822 34.5692 68.354 32.5647L63.6655 33.0743L66.6213 25.3281L70.1377 24.9204C71.5646 20.8774 73.5182 17.7857 75.9983 15.6453C78.4785 13.5049 81.2304 12.4347 84.2542 12.4347C85.1715 12.4347 85.9869 12.5366 86.7003 12.7405C87.4138 12.9103 87.9574 13.1482 88.3311 13.4539ZM80.2791 20.1809C78.5804 20.1809 77.0685 20.5716 75.7435 21.353C74.4185 22.1345 73.3483 23.2386 72.5329 24.6656L82.1647 23.5954C82.3346 22.8139 82.5045 21.7777 82.6743 20.4867C81.9609 20.2828 81.1625 20.1809 80.2791 20.1809ZM80.6359 9.22409C79.4468 8.30677 78.2576 6.84586 77.0685 4.84136L81.808 1.68172L82.5215 2.85384C83.4728 4.41668 84.2712 5.60579 84.9167 6.42118L80.6359 9.22409Z" fill="#FF9705"/>
</g>
<g filter="url(#filter1_d_270_17)">
<path d="M46.7002 19.7223C46.7002 16.8344 46.6323 14.3713 46.4964 12.3328C46.3605 10.2943 46.1396 8.1709 45.8339 5.96255C46.8531 4.73946 47.9403 3.56734 49.0954 2.44618C50.2846 1.32501 51.3548 0.509619 52.3061 0C52.4419 0.543596 52.5099 1.29104 52.5099 2.24233C52.5099 3.94106 52.323 6.26833 51.9493 9.22412C51.6096 12.1799 51.3378 13.8447 51.1339 14.2184L47.8214 21.7098L46.7002 21.3531V19.7223ZM66.9321 26.2964L64.7408 32.2589L63.6706 33.1763C59.9673 33.55 57.4532 33.7368 56.1282 33.7368C53.9538 33.7368 52.2211 33.2272 50.9301 32.208C47.9403 33.3291 45.0355 34.0426 42.2156 34.3484L45.1714 26.6022L46.5983 26.4493L48.5349 26.2454C48.6368 24.8525 48.9426 23.4425 49.4522 22.0156C49.9958 20.5547 50.6413 19.3146 51.3887 18.2954C52.34 17.0043 53.5461 16.0021 55.007 15.2886C56.5019 14.5412 57.9458 14.1674 59.3388 14.1674C60.8677 14.1674 61.9548 14.6261 62.6004 15.5434C63.2459 16.4607 63.5686 17.8027 63.5686 19.5694C63.5686 21.8797 62.7023 24.0371 60.9696 26.0416L62.8042 25.8377L66.6264 25.43L66.9321 26.2964ZM50.2166 25.7868C50.2166 25.8887 50.2336 25.9566 50.2676 25.9906C54.0388 25.481 56.7567 24.9544 58.4215 24.4108C60.0862 23.8332 60.9186 23.3236 60.9186 22.8819C60.9186 22.6441 60.6978 22.4403 60.2561 22.2704C59.8484 22.1005 59.2029 22.0156 58.3196 22.0156C56.9945 22.0156 55.7035 22.2194 54.4464 22.6271C53.1894 23.0008 52.1701 23.4935 51.3887 24.105C50.6073 24.6826 50.2166 25.2432 50.2166 25.7868Z" fill="#FF9705"/>
</g>
<g filter="url(#filter2_d_270_17)">
<path d="M45.4944 28.08L43.303 34.0426L42.2328 34.9599L39.8886 35.2147C39.4809 37.3551 38.7504 39.3426 37.6972 41.1773C36.6779 42.9779 35.3869 44.4218 33.8241 45.509C32.2952 46.5622 30.5965 47.0888 28.7279 47.0888C27.199 47.0888 25.4323 46.7151 23.4278 45.9677C21.4233 45.1863 19.9454 44.3369 18.9941 43.4196C21.6781 42.6382 24.6679 41.6529 27.9635 40.4638C31.293 39.2407 34.0279 38.1365 36.1683 37.1513L35.8626 35.3676H33.4673C32.1763 35.3676 31.1401 35.1807 30.3587 34.807C29.5772 34.3993 29.1865 33.8387 29.1865 33.1253C29.1865 32.2759 29.6452 31.1377 30.5625 29.7108C31.4798 28.2839 32.567 27.0268 33.8241 25.9396C35.0811 24.8185 36.1683 24.2579 37.0856 24.2579C37.6972 24.2579 38.2408 24.5637 38.7164 25.1752C39.1921 25.7867 39.5658 26.6361 39.8376 27.7233L45.1886 27.2137L45.4944 28.08Z" fill="#FF9705"/>
</g>
<g filter="url(#filter3_d_270_17)">
<path d="M16.053 28.3348C16.7325 29.0143 17.3101 30.0166 17.7857 31.3416C18.2614 32.6326 18.4992 33.8557 18.4992 35.0109C18.4992 36.9474 18.0236 38.867 17.0723 40.7696C16.121 42.6382 14.8469 44.167 13.2501 45.3561C11.6533 46.5113 9.95457 47.0889 8.15392 47.0889C6.82891 47.0889 5.63979 46.7151 4.58658 45.9677C3.56734 45.2202 2.88785 44.269 2.5481 43.1138C2.684 41.4491 3.12567 39.4106 3.87311 36.9984C2.5481 37.576 1.342 38.1875 0.25481 38.833C0.0849367 37.542 0 36.2509 0 34.9599C0 33.0913 0.152886 31.5964 0.458658 30.4753C1.74969 29.5919 3.55035 28.8105 5.86063 28.131C8.17091 27.4175 10.1924 27.0608 11.9251 27.0608C13.8277 27.0608 15.2037 27.4855 16.053 28.3348ZM8.51065 39.3426C10.2434 39.3426 11.8741 38.867 13.403 37.9157C14.9319 36.9644 15.8832 35.8772 16.2569 34.6541C15.7133 34.5182 15.0678 34.4503 14.3203 34.4503C12.112 34.4503 9.377 35.0109 6.11544 36.132C5.91159 36.9134 5.7587 37.6949 5.65678 38.4763C6.33627 39.0539 7.28756 39.3426 8.51065 39.3426ZM6.21736 19.7223L15.4415 17.2251L14.4222 22.4742L5.35101 24.4617L6.21736 19.7223Z" fill="#FF9705"/>
</g>
<defs>
<filter id="filter0_d_270_17" x="63.6655" y="1.68172" width="24.6655" height="41.3744" filterUnits="userSpaceOnUse" color-interpolation-filters="sRGB">
<feFlood flood-opacity="0" result="BackgroundImageFix"/>
<feColorMatrix in="SourceAlpha" type="matrix" values="0 0 0 0 0 0 0 0 0 0 0 0 0 0 0 0 0 0 127 0" result="hardAlpha"/>
<feOffset dy="3"/>
<feComposite in2="hardAlpha" operator="out"/>
<feColorMatrix type="matrix" values="0 0 0 0 0.133333 0 0 0 0 0.137255 0 0 0 0 0.137255 0 0 0 1 0"/>
<feBlend mode="normal" in2="BackgroundImageFix" result="effect1_dropShadow_270_17"/>
<feBlend mode="normal" in="SourceGraphic" in2="effect1_dropShadow_270_17" result="shape"/>
</filter>
<filter id="filter1_d_270_17" x="42.2156" y="0" width="24.7166" height="37.3484" filterUnits="userSpaceOnUse" color-interpolation-filters="sRGB">
<feFlood flood-opacity="0" result="BackgroundImageFix"/>
<feColorMatrix in="SourceAlpha" type="matrix" values="0 0 0 0 0 0 0 0 0 0 0 0 0 0 0 0 0 0 127 0" result="hardAlpha"/>
<feOffset dy="3"/>
<feComposite in2="hardAlpha" operator="out"/>
<feColorMatrix type="matrix" values="0 0 0 0 0.133333 0 0 0 0 0.137255 0 0 0 0 0.137255 0 0 0 1 0"/>
<feBlend mode="normal" in2="BackgroundImageFix" result="effect1_dropShadow_270_17"/>
<feBlend mode="normal" in="SourceGraphic" in2="effect1_dropShadow_270_17" result="shape"/>
</filter>
<filter id="filter2_d_270_17" x="18.9941" y="24.2579" width="26.5002" height="25.831" filterUnits="userSpaceOnUse" color-interpolation-filters="sRGB">
<feFlood flood-opacity="0" result="BackgroundImageFix"/>
<feColorMatrix in="SourceAlpha" type="matrix" values="0 0 0 0 0 0 0 0 0 0 0 0 0 0 0 0 0 0 127 0" result="hardAlpha"/>
<feOffset dy="3"/>
<feComposite in2="hardAlpha" operator="out"/>
<feColorMatrix type="matrix" values="0 0 0 0 0.133333 0 0 0 0 0.137255 0 0 0 0 0.137255 0 0 0 1 0"/>
<feBlend mode="normal" in2="BackgroundImageFix" result="effect1_dropShadow_270_17"/>
<feBlend mode="normal" in="SourceGraphic" in2="effect1_dropShadow_270_17" result="shape"/>
</filter>
<filter id="filter3_d_270_17" x="0" y="17.2251" width="18.4993" height="32.8637" filterUnits="userSpaceOnUse" color-interpolation-filters="sRGB">
<feFlood flood-opacity="0" result="BackgroundImageFix"/>
<feColorMatrix in="SourceAlpha" type="matrix" values="0 0 0 0 0 0 0 0 0 0 0 0 0 0 0 0 0 0 127 0" result="hardAlpha"/>
<feOffset dy="3"/>
<feComposite in2="hardAlpha" operator="out"/>
<feColorMatrix type="matrix" values="0 0 0 0 0.133333 0 0 0 0 0.137255 0 0 0 0 0.137255 0 0 0 1 0"/>
<feBlend mode="normal" in2="BackgroundImageFix" result="effect1_dropShadow_270_17"/>
<feBlend mode="normal" in="SourceGraphic" in2="effect1_dropShadow_270_17" result="shape"/>
</filter>
</defs>
</svg>
